<?xml version="1.0" encoding="utf-8"?>
<!-- Generator: Adobe Illustrator 19.2.0, SVG Export Plug-In . SVG Version: 6.00 Build 0)  -->
<svg version="1.1" id="Isolation_Mode" xmlns="http://www.w3.org/2000/svg" xmlns:xlink="http://www.w3.org/1999/xlink" x="0px"
	 y="0px" viewBox="0 0 64 64" enable-background="new 0 0 64 64" xml:space="preserve">
<g>
	<g>
		<g>
			<path fill="#E62D33" d="M7.8,25.2c-7.6,0-7.9,5.9-7.8,7.4c0,0-0.4,6.9,7.7,6.9c6.9,0,7.2-4.3,7.2-4.3l-3.2,0c0,0-0.6,2.4-4.1,2.3
				c-4.4-0.1-4.6-4.4-4.6-4.4h12.2C15.3,33.2,16.2,25.2,7.8,25.2z M3.2,31.1c0,0,0.2-3.9,4.6-3.9c4.3,0,4.3,3.9,4.3,3.9H3.2z"/>
		</g>
	</g>
	<g>
		<g>
			<path fill="#065FAB" d="M23.8,25.2c-3.8,0-5.5,2.3-5.5,2.3v-7.6h-3.1L15.4,36c0,0,0,1.9-0.1,3.1h3l0.1-1.8c0,0,1.4,2.3,5.4,2.3
				c4.1,0,7.2-2.5,7.3-7.1C31.2,27.8,27.6,25.2,23.8,25.2z M23.1,37.5c-4.8,0.1-4.7-5.1-4.7-5.1s-0.2-5,4.7-5.1
				c4.9-0.1,4.7,5.2,4.7,5.2S27.9,37.4,23.1,37.5z"/>
		</g>
	</g>
	<g>
		<g>
			<path fill="#F9AE00" d="M45.2,35.9c0-2.1,0.1-3.9,0-5.3c-0.1-1.5,0.1-5.2-6.5-5.5c0,0-6.3-0.6-7,4.1H35c0,0,0.3-2.2,3.5-2.1
				c3.1,0.1,3.7,1.6,3.7,3.5c0,0-2.7,0-3.5,0c-1.6,0-7.2,0.2-7.7,3.6c-0.6,4.1,3,5.3,5.8,5.3c2.8,0,4.4-0.9,5.6-2.4l0.1,1.9l2.8,0
				C45.3,39,45.2,38,45.2,35.9z M37.2,37.6c0,0-3.1,0-3.2-2.4c-0.2-2.6,4.7-2.5,4.7-2.5l3.5,0C42.2,32.7,42.7,37.7,37.2,37.6z"/>
		</g>
	</g>
	<polygon fill="#6CB32D" points="43.5,25.7 47.1,25.7 52.3,36.1 57.5,25.7 60.7,25.7 51.3,44.2 47.9,44.2 50.6,39 	"/>
	<g>
		<path d="M61.9,26.5v-0.4h-0.1v-0.1h0.1v-0.2h0.2v0.2h0.3v0.1h-0.3v0.4c0,0.1,0,0.1,0.1,0.1c0,0,0.1,0,0.1,0v0.1
			c-0.1,0-0.1,0-0.2,0C62,26.7,61.9,26.6,61.9,26.5z"/>
		<path d="M62.6,25.9h0.2V26c0.1-0.1,0.1-0.1,0.3-0.1c0.1,0,0.2,0.1,0.3,0.1c0.1-0.1,0.2-0.1,0.3-0.1c0.2,0,0.3,0.1,0.3,0.3v0.5
			h-0.2v-0.4c0-0.1-0.1-0.2-0.2-0.2c-0.1,0-0.2,0.1-0.2,0.2v0.4h-0.2v-0.4c0-0.1-0.1-0.2-0.2-0.2c-0.1,0-0.2,0.1-0.2,0.2v0.4h-0.2
			V25.9z"/>
	</g>
</g>
</svg>
